<?xml version="1.0" encoding="UTF-8" standalone="no"?>
<svg
   version="1.0"
   width="1500"
   height="1500"
   viewBox="0 0 1500 1500"
   preserveAspectRatio="xMidYMid"
   id="svg68"
   sodipodi:docname="LogoReadme.svg"
   inkscape:version="1.2.2 (b0a8486541, 2022-12-01)"
   xmlns:inkscape="http://www.inkscape.org/namespaces/inkscape"
   xmlns:sodipodi="http://sodipodi.sourceforge.net/DTD/sodipodi-0.dtd"
   xmlns="http://www.w3.org/2000/svg"
   xmlns:svg="http://www.w3.org/2000/svg">
  <defs
     id="defs72">
    <filter
       inkscape:menu-tooltip="In and out glow with a possible offset and colorizable flood"
       inkscape:menu="Shadows and Glows"
       inkscape:label="Cutout Glow"
       style="color-interpolation-filters:sRGB"
       id="filter957"
       x="-0.18379778"
       y="-0.18244375"
       width="1.3675956"
       height="1.3648875">
      <feOffset
         dy="0"
         dx="0"
         id="feOffset947"
         preserveAlpha="true" />
      <feGaussianBlur
         stdDeviation="85"
         result="blur"
         id="feGaussianBlur949" />
      <feFlood
         flood-color="rgb(255,255,255)"
         flood-opacity="1"
         result="flood"
         id="feFlood951" />
      <feComposite
         in="flood"
         in2="SourceGraphic"
         operator="in"
         result="composite"
         id="feComposite953" />
      <feBlend
         mode="normal"
         id="feBlend955"
         in="blur"
         in2="composite" />
    </filter>
    <filter
       inkscape:menu-tooltip="In and out glow with a possible offset and colorizable flood"
       inkscape:menu="Shadows and Glows"
       inkscape:label="Cutout Glow"
       style="color-interpolation-filters:sRGB"
       id="filter940"
       x="-0.055102047"
       y="-0.055102047"
       width="1.1102041"
       height="1.1102041">
      <feOffset
         dy="0"
         dx="0"
         id="feOffset930"
         preserveAlpha="true" />
      <feGaussianBlur
         stdDeviation="30.133932"
         result="blur"
         id="feGaussianBlur932" />
      <feFlood
         flood-color="rgb(254,254,254)"
         flood-opacity="1"
         result="flood"
         id="feFlood934" />
      <feComposite
         in="flood"
         in2="SourceGraphic"
         operator="in"
         result="composite"
         id="feComposite936" />
      <feBlend
         in="blur"
         in2="composite"
         mode="overlay"
         id="feBlend938" />
    </filter>
  </defs>
  <sodipodi:namedview
     id="namedview70"
     pagecolor="#ffffff"
     bordercolor="#000000"
     borderopacity="0.25"
     inkscape:showpageshadow="2"
     inkscape:pageopacity="0.0"
     inkscape:pagecheckerboard="0"
     inkscape:deskcolor="#d1d1d1"
     showgrid="false"
     inkscape:zoom="0.45254834"
     inkscape:cx="486.13591"
     inkscape:cy="733.62329"
     inkscape:window-width="1920"
     inkscape:window-height="1008"
     inkscape:window-x="0"
     inkscape:window-y="0"
     inkscape:window-maximized="1"
     inkscape:current-layer="layer2" />
  <g
     inkscape:groupmode="layer"
     id="layer2"
     inkscape:label="Glow"
     style="display:inline"
     transform="translate(129.74045,138.02637)">
    <circle
       style="display:inline;fill:#2e9fb8;stroke-opacity:0;filter:url(#filter940);fill-opacity:1"
       id="path854"
       cx="620.25952"
       cy="621.34863"
       r="656.25"
       transform="matrix(0.97145866,0,0,0.97243448,15.565195,6.2964615)" />
  </g>
  <g
     inkscape:groupmode="layer"
     id="layer1"
     inkscape:label="Layer 1"
     style="display:inline"
     transform="translate(129.74045,138.02637)">
    <g
       id="g847"
       style="display:inline"
       transform="translate(3.8388737,-39.516514)">
      <path
         d="m 626.54688,1145.0281 c -52.3,-17.4 -85.08247,-54.8571 -83.2,-98.2 C 545.34949,1000.719 571.175,968.9 613.675,954 c 24.1,-8.4 37.7,-10.4 96.7,-13.5 22.1,-1.2 38,-3.6 49.8,-7.4 28.1,-9.3 47.4,-28.1 52.2,-51.1 2,-9.5 1.9,-15.7 -0.5,-24.9 -6.2,-24.2 -26.9,-45.4 -60.5,-61.6 -16.3,-7.9 -31.5,-13 -57.9,-19.5 -24.5,-6 -36.3,-9.8 -47.8,-15.6 -6.3,-3.2 -8.2,-4.7 -10.3,-8.3 -3.2,-5.4 -9.1,-20 -11,-26.9 l -1.4,-5.2 v 6.6 c -0.1,7.8 2,20.7 5.4,33.4 3.1,11.7 4.8,24.8 4,30.5 l -0.7,4.5 -2.8,-5.6 c -4.6,-8.9 -5.5,-9 -5.7,-0.1 -0.5,14.6 -7.8,34.5 -16.3,44.2 l -3.9,4.5 0.6,-6.6 c 0.6,-6.6 -0.9,-13.9 -2.8,-13.9 -0.5,0 -2.9,1.6 -5.5,3.5 -2.5,1.9 -7.7,4.4 -11.6,5.6 -8.4,2.6 -21.6,2.9 -64.8,1.5 -40.6,-1.3 -51.9,0.6 -56.2,9.4 -6.7,13.8 -14.1,30 -14.9,32.3 -0.5,1.8 -0.2,5.6 0.8,10.8 1.9,9.5 0.8,17 -3.3,21.9 -2.3,2.7 -2.4,3.3 -1.4,7 1.3,5 8.1,12.2 13.7,14.6 3.4,1.4 3.6,1.7 1.8,2.4 -3.9,1.6 -14.2,1.1 -19.9,-1 -6.9,-2.6 -14.4,-9.9 -18.5,-18.1 -2.8,-5.6 -3.1,-7.2 -3.2,-15.8 -0.1,-9.4 -0.1,-9.5 -1.5,-6.2 -2.8,6.3 -3.8,13.6 -2.6,19.3 1,5 0.9,5.4 -1.5,8 -2.4,2.5 -2.5,3.2 -1.9,8.5 0.8,7.1 5.1,16.5 10,21.7 2,2.1 3.5,4 3.3,4.2 -0.7,0.7 -9.3,-1.8 -13.6,-4.1 -5.3,-2.6 -15.1,-12.7 -18,-18.3 -3.3,-6.6 -6.3,-17.6 -6.3,-23.7 -0.1,-4.8 0.8,-8.1 4.1,-16.4 2.3,-5.7 4,-10.5 3.8,-10.7 -0.6,-0.7 -11.4,14.9 -13.7,19.6 -1.1,2.5 -2.9,5.9 -3.8,7.5 -1.3,2.4 -1.7,5.4 -1.7,14.7 l 0.1,11.8 -2.1,-2 c -3.4,-3.2 -8.5,-12.5 -10.1,-18.2 -1.8,-7.1 -1.8,-18.4 0.2,-26.3 2.2,-8.7 7,-15.3 17.6,-24.2 10.1,-8.5 15.2,-15.6 27.9,-39.2 9.7,-17.9 16.3,-25.6 25.2,-29.6 5.9,-2.6 9.9,-3.4 31.2,-6.5 16.9,-2.5 33.9,-6.2 45.5,-10 7.3,-2.4 36.8,-14.5 37.9,-15.6 0.2,-0.2 -3.7,-5.4 -8.6,-11.6 -10.4,-13 -18.6,-25.2 -23.7,-35.4 -8.5,-17 -13.2,-38.2 -12.2,-55.4 l 0.5,-9.5 -2,7.5 c -2.9,10.7 -2.9,29.3 -0.1,41.7 3.6,15.9 9.5,28.7 21.8,47.5 l 6.3,9.8 -3.2,2.4 c -8.7,6.7 -33,15.7 -50.1,18.6 -15.8,2.7 -17.2,2.6 -25.7,-1.7 -8.1,-4 -18.7,-14.1 -52.1,-49.4 -9.2,-9.7 -18.8,-19.1 -21.4,-20.8 -7.1,-4.7 -9.3,-4.2 -17.9,3.6 -7.9,7.1 -9.5,10 -9.5,17 0,10 -3.7,16.7 -13.2,24 -3.6,2.7 -3.4,15.5 0.3,24.1 1.1,2.4 1.9,4.5 1.9,4.7 0,1.6 -6.9,-2.6 -10.7,-6.4 -8.8,-8.7 -12.1,-21 -9.3,-34.2 0.7,-3.3 1.1,-6.2 0.8,-6.4 -0.3,-0.3 -2.6,2.6 -5.1,6.5 -3.6,5.4 -5.4,7.1 -7.9,7.8 -2.9,0.7 -3.5,1.4 -4.6,5.8 -1.8,6.6 -1,19.4 1.7,26.9 1.1,3.2 2.1,6.1 2.1,6.3 0,1.1 -9,-6.2 -11.6,-9.5 -8,-10 -10.8,-19.7 -10.2,-35.3 0.6,-13.7 2.1,-17.9 9.4,-26 6.3,-6.9 11.8,-14 10.9,-14 -1.3,0 -16.2,11.9 -19.7,15.8 -2,2.2 -4.2,5.8 -4.8,7.9 -0.7,2.3 -2.1,4.3 -3.4,4.9 -1.3,0.5 -3.1,3.3 -4.5,6.9 -2,4.9 -2.5,7.8 -2.5,16.2 -0.1,5.7 -0.4,10.3 -0.9,10.3 -1.5,0 -6.8,-9.6 -8.8,-16 -2.4,-7.8 -2.8,-19.3 -0.9,-27 2.2,-9 8.3,-21.2 12.4,-24.8 2,-1.8 6.5,-4.6 9.9,-6.3 3.4,-1.7 14.1,-8.6 23.7,-15.4 31.3,-21.9 39.7,-26.7 50.3,-28.5 5.3,-1 7.6,-0.9 12.6,0.4 8.6,2.2 13.4,4.9 31.6,17.6 16.3,11.4 28.1,18.7 38.4,23.9 4.8,2.5 6.8,4.4 11.8,11.3 3.4,4.6 9.5,11.9 13.7,16.3 l 7.6,8 -5.7,-9.5 c -10.3,-17.3 -18.7,-37.8 -22.7,-55.9 -2.3,-10.8 -2.9,-11.4 -4.1,-4.6 -0.9,5.1 -1.6,7.7 -2,7.3 -0.2,-0.2 -1.5,-4.2 -2.9,-8.9 -7.1,-24.7 -4.8,-48.8 6.9,-72.7 2.9,-5.9 5.2,-10.9 5,-11.1 -1.5,-1.4 -17.1,10.6 -22.2,17 l -3.3,4.2 v -3.1 c 0,-4.6 4.7,-18.8 8.7,-26.2 5.6,-10.3 11.3,-17.8 21.8,-28.2 l 9.7,-9.7 -8.4,2.9 c -4.6,1.6 -11.7,3.8 -15.8,4.9 l -7.5,2 3.4,-2.7 c 37,-29.1 67.5,-65 79.1,-93.1 6.6,-16.1 7.9,-36 3.1,-48.3 -4.1,-10.5 -13.4,-20.7 -24.1,-26.2 l -4.5,-2.4 6.6,-0.7 c 8,-0.8 18.5,0.6 28,4 5.6,1.9 6.9,2.1 6.9,0.9 0,-3.2 -6.8,-15.2 -11.7,-20.5 -2.9,-3.1 -5.3,-5.9 -5.3,-6.1 0,-1.2 15.4,-1.7 22.5,-0.8 6.7,1 18.1,4.2 25.9,7.5 1.7,0.7 1.8,0.5 1.3,-2.1 -1.8,-9.3 -8.4,-21.4 -16.2,-29.8 -1.9,-2.1 -3.3,-4.1 -3,-4.4 1.1,-1.2 10.8,-1.4 18.2,-0.4 4.3,0.6 11.6,2.3 16.2,3.7 4.6,1.5 8.5,2.5 8.6,2.3 0.2,-0.2 -1.1,-3.8 -2.9,-8 -6.9,-16 -18.6,-28.5 -33.7,-36.3 -4.9,-2.5 -8.9,-4.4 -8.9,-4.2 0,0.2 2.4,2 5.3,3.9 9.9,6.8 20.8,18.6 26.7,29.1 3.6,6.4 3.6,6.4 -5.5,4.2 -9.6,-2.3 -28.5,-1.8 -36.4,1.1 -1,0.3 0.4,2.1 4.3,5.5 6.2,5.6 13.5,15.3 16,21.3 1.5,3.6 1.5,3.8 -0.2,3.1 -8.2,-3.3 -18,-4.7 -29.6,-4.3 -11,0.4 -26.6,3.2 -26.6,4.7 0,0.3 2.4,1.9 5.3,3.5 4.9,2.8 18.4,15.3 17.4,16.2 -0.2,0.3 -4.6,-0.3 -9.7,-1.2 -10.9,-1.8 -20.5,-1 -34.2,3.2 -10.5,3.1 -19,5 -29.8,6.3 -4.7,0.6 -11.2,1.6 -14.5,2.3 l -5.9,1.2 6.9,1.7 c 3.9,0.9 8.6,2.4 10.5,3.2 l 3.5,1.4 -6,0.7 c -9.5,1.1 -25.2,5.3 -32.1,8.5 -8.6,4 -16.9,9.8 -25.8,18 -5.3,5 -8.5,7.2 -11.1,7.7 -9.3,1.7 -20.5,-2.4 -27.4,-10.1 -2.2,-2.5 -5.5,-4.8 -8.5,-5.9 -5.4,-2.1 -17.2,-12.5 -20.7,-18.5 -1.2,-2 -3.9,-5.4 -5.9,-7.6 -6.3,-6.7 -10,-12.6 -10,-15.8 0,-2.2 2.2,-5.7 8.9,-14.1 9.3,-11.6 19.4,-26.2 23,-33.2 1.8,-3.5 2.2,-6.1 2.4,-16 l 0.2,-11.9 4.6,-9.5 c 5.8,-12 14,-22.8 26.5,-35.2 9.1,-8.9 30,-25.5 31,-24.6 0.2,0.3 -1.9,3 -4.7,6.1 -2.8,3.1 -4.8,5.7 -4.5,5.7 0.4,0 3,-1.9 5.9,-4.3 12.5,-10.2 35,-22.9 53.7,-30.2 11.2,-4.4 9.9,-3 36,-38.5 9.5,-12.9 20.7,-27.8 24.8,-33 9.3,-11.7 26,-28.5 32.6,-33 4.8,-3.2 4.9,-3.2 4.1,-0.9 -3.5,11.2 -4.4,16.2 -4.4,26.1 -0.1,13.2 1.6,22.3 7.6,40.8 4.7,14.3 4.8,14.7 4.8,27.5 -0.1,14.7 -2.1,24.7 -8,38.8 -1.9,4.3 -2.8,7.3 -2,6.7 1.9,-1.6 12.5,-17.2 16.5,-24.2 1.7,-3.2 3.5,-5.8 3.8,-5.8 0.4,0 6.1,-1 12.7,-2.1 23.9,-4.1 55.1,-3.6 78.6,1.1 18.4,3.8 45.4,13.5 59.5,21.6 l 5.1,2.9 h -21.6 c -17.8,0 -22.7,0.3 -28.1,1.8 -16.2,4.6 -21.1,12.4 -12.3,19.8 3.3,2.8 6.9,4.4 20.8,9.5 27.5,10 51.2,27.3 68,49.9 5.5,7.3 14.5,22 14.5,23.6 0,0.4 -3.7,-1.8 -8.2,-4.8 -15.2,-10.1 -29.3,-16 -40.8,-16.9 -5.8,-0.5 -6.8,-0.3 -9.3,1.8 -2.2,1.8 -2.9,3.2 -2.9,5.9 0,5.1 2.9,10.1 12.3,20.9 14.4,16.7 22.7,31.2 28.7,50 3.6,11.3 6.2,27.6 6.2,38.6 v 7.9 l -3.3,-6 c -7.7,-14.2 -16,-24.6 -23.5,-29.3 -7,-4.5 -10.6,-4.9 -13.7,-1.8 -2.2,2.2 -2.5,3.4 -2.5,9.1 0,4 1,10.1 2.5,15.4 7.5,26.9 7.4,52.5 -0.4,75.1 -1.6,4.7 -3.8,10.4 -4.9,12.8 l -1.9,4.3 -0.7,-7.8 c -1.7,-19.4 -8.3,-34.2 -14.2,-31.9 -0.7,0.3 -4,6 -7.3,12.8 -3.3,6.8 -10.9,21 -17,31.7 -14.5,25.6 -19.1,38.1 -19.1,52.7 0,16.6 10.5,31.3 24.2,33.9 2.9,0.6 5.6,-0.1 13.5,-3.2 12.2,-4.9 22.8,-7.8 36,-9.8 10.3,-1.5 32.4,-2.1 33.6,-0.9 0.4,0.4 -3,2.2 -7.4,4 -15.2,6.2 -29.1,16.2 -32.7,23.5 -1.9,3.8 -2,4.5 -0.7,7 3.2,6 16.5,6.4 34,0.9 18.8,-5.9 26.8,-7.2 45.1,-7.8 12.8,-0.3 19.6,0 27.5,1.2 9.7,1.5 33.4,7.4 32.7,8.2 -0.2,0.2 -4.6,0.8 -9.8,1.4 -27.3,3.3 -48.1,11.4 -50.5,19.7 -0.9,3.1 3,6.8 8.6,8.3 2.4,0.7 8.5,1.2 13.4,1.2 12.4,0 30.2,1.5 37.8,3.3 15,3.5 32.4,10.8 45.7,19.3 5.8,3.7 18.2,13.3 17.7,13.8 -0.2,0.2 -3.8,-0.8 -8.1,-2.1 -13.5,-4.2 -23.5,-5.8 -34.6,-5.8 -11.3,0 -15.3,1 -16.9,4.2 -1.5,2.8 0.9,4.8 14.4,12.3 27.9,15.4 41.90928,26.51576 59.5,42.8 52.35521,48.46675 64.34346,108.62344 58.60625,158.34375 -5.75364,43.52533 -33.60244,90.87577 -94.3875,124.84375 -102.76241,57.4258 -230.31886,4.3586 -236.70625,46.0743 -2.07894,13.5774 7.11374,25.0645 18.61195,34.2625 30.12505,24.0987 76.89924,35.1048 174.87555,19.4039 85.27315,-13.6653 160.1,-64.5282 205.5,-133.9282 43.8,-66.8 56,-143.1 33.3,-208.8 -4,-11.6 -12,-28.7 -18.8,-39.9 -2.1,-3.5 -3.6,-6.3 -3.3,-6.3 0.9,0 6.6,4.4 12.7,9.8 8.3,7.3 15.6,16 22.7,26.7 l 6.1,9 -0.7,-7 c -3.7,-42.9 -16.7,-84.1 -37.9,-119.9 -2.5,-4.2 -4.1,-7.6 -3.7,-7.6 1.8,0 16,11.6 24.9,20.4 l 9.2,9.1 -0.6,-5 c -0.3,-2.8 -1.9,-11.3 -3.5,-19 -12.1,-59.2 -39.1,-110.8 -78.4,-149.8 l -9.9,-9.7 5.5,1.6 c 8,2.4 25.2,10.3 34.8,15.9 19.1,11.5 39.9,29.3 54.8,47 31.1,37 50.6,81.1 58.3,131.5 1.2,7.4 2.2,13.6 2.4,13.8 0.5,0.4 4.3,-9.5 6,-15.8 3,-10.7 4.7,-24 4.9,-38.3 0.1,-8 0.5,-14.3 0.9,-14.1 0.8,0.5 6.2,16.9 8.2,24.9 3.7,15.3 4.9,27.5 4.3,47 -0.5,19.9 -2.4,33.4 -7.2,52.1 -2.7,10.5 -12.8,40.9 -16.9,50.9 -1.3,3.3 -2.2,6.2 -2,6.4 0.2,0.2 2.2,-0.9 4.6,-2.4 6.7,-4.4 17.1,-15.7 23.8,-25.7 l 6.3,-9.3 -0.8,5.5 c -3.1,22.9 -13.7,47.9 -32.5,76 -10.9,16.4 -13.8,22.8 -20,44.8 -13.6,47.8 -33.3,89 -61.8,129.2 -48.0398,68.8469 -134.56839,112.3782 -195.23125,128.4625 -94.02706,21.45 -161.78182,25.1806 -247.29687,3.0656 z M 363.275,297.4 c 2.6,-1.1 7.9,-2.7 11.9,-3.5 15.5,-3.1 24.2,-9.8 32.2,-24.6 2.1,-4 6.4,-10.2 9.4,-13.8 3.9,-4.5 4.8,-5.9 2.9,-4.7 -1.5,0.9 -9.2,3.9 -17.1,6.6 -7.9,2.7 -16.3,5.9 -18.6,7 -6.5,3.4 -11.7,9.5 -16.5,19.5 -2.4,5 -5.6,10.6 -7.1,12.4 -3.2,3.8 -3.1,3.8 2.9,1.1 z m 110.7,-85.1 c 4.6,-2.2 10.2,-5.9 12.6,-8.1 3.8,-3.5 21.2,-27.7 19.9,-27.7 -1.4,0 -11.8,5.1 -15.2,7.4 -2.1,1.4 -3.9,2.4 -4.1,2.2 -0.7,-0.7 5.8,-18.8 9.2,-25.8 l 3.7,-7.3 -4.6,4.5 c -9.8,9.4 -19.4,26 -24.1,41.5 -1.5,4.9 -3.6,10.8 -4.6,13.2 -1,2.4 -1.7,4.3 -1.5,4.3 0.2,0 4.1,-1.9 8.7,-4.2 z"
         id="path1027"
         inkscape:label="Body"
         style="display:inline;fill:#032022;fill-opacity:1;stroke:none;stroke-opacity:0"
         sodipodi:nodetypes="cscccccccccccccccccccsscccccccccccsccccccscccccccccccccccccscsccccccccccccsccscscccccscccscccccscccsccccccccccsscccccscccccccccccccscsccccccccccscccccsccsccccccccccccccccccscscccccssccccccccccccsccccsccccscccsccscccssccccccscscccsccccccccccsccscsccscsssscccscccccsccccccccccccccccccsccccccccccscccscsccccscsccccssc" />
      <path
         d="m 401.275,176.8 c 10.8,-21.7 15.8,-36.8 19.1,-58.3 0.9,-5.8 1.8,-12 2.1,-13.8 l 0.5,-3.3 4.7,6.3 c 2.6,3.5 7.7,10 11.4,14.6 7.3,9.3 11.4,16.9 12.4,23.1 0.5,3.4 0.1,5.2 -2.5,10.5 l -3.1,6.3 -18.2,9.1 c -10.1,5 -21.4,11.2 -25.1,13.7 -3.8,2.5 -7.1,4.5 -7.3,4.5 -0.2,0 2.5,-5.7 6,-12.7 z"
         id="path1123"
         style="display:inline;fill:#032022"
         inkscape:label="Ear" />
      <path
         id="path1620"
         style="display:inline;fill:#032022;fill-opacity:1;stroke:none;stroke-width:1.1586;stroke-opacity:0"
         d="M 721.31492,1176.9553 C 302.54143,1141.0359 58.694803,853.49075 250.61318,560.07707 -159.03299,854.6371 206.12975,1241.6909 721.31492,1176.9553 Z"
         sodipodi:nodetypes="ccc"
         inkscape:label="Curve" />
    </g>
  </g>
</svg>
